<svg width="40" height="35" viewBox="0 0 40 35" fill="none" xmlns="http://www.w3.org/2000/svg">
<path d="M27.2727 15C30.2909 15 32.7091 11.65 32.7091 7.5C32.7091 3.35 30.2909 0 27.2727 0C24.2545 0 21.8182 3.35 21.8182 7.5C21.8182 11.65 24.2545 15 27.2727 15ZM12.7273 15C15.7455 15 18.1636 11.65 18.1636 7.5C18.1636 3.35 15.7455 0 12.7273 0C9.70909 0 7.27273 3.35 7.27273 7.5C7.27273 11.65 9.70909 15 12.7273 15ZM12.7273 20C8.49091 20 0 22.925 0 28.75V35H25.4545V28.75C25.4545 22.925 16.9636 20 12.7273 20ZM27.2727 20C26.7455 20 26.1455 20.05 25.5091 20.125C27.6182 22.225 29.0909 25.05 29.0909 28.75V35H40V28.75C40 22.925 31.5091 20 27.2727 20Z" fill="#0E9E52"/>
</svg>
